HIERARCHY
ROOT Hips
{
  OFFSET 5.72205e-005 65.662 3.42586
  CHANNELS 6 Xposition Yposition Zposition Zrotation Xrotation Yrotation
  JOINT Chest
  {
    OFFSET 0 8.7983 -4.7612
    CHANNELS 3 Zrotation Xrotation Yrotation
    JOINT Chest2
    {
      OFFSET 0 8.0291 0.4195
      CHANNELS 3 Zrotation Xrotation Yrotation
      JOINT Chest3
      {
        OFFSET 0 9.9351 -2.2114
        CHANNELS 3 Zrotation Xrotation Yrotation
        JOINT Neck
        {
          OFFSET 0 22.3885 -0.4656
          CHANNELS 3 Zrotation Xrotation Yrotation
          JOINT Head
          {
            OFFSET -0.0001 12.643 3.4389
            CHANNELS 3 Zrotation Xrotation Yrotation
            End Site
            {
              OFFSET 0.0001 17.6655 0.5274
            }
          }
        }
        JOINT LeftCollar
        {
          OFFSET 2.2603 21.606 7.4023
          CHANNELS 3 Zrotation Xrotation Yrotation
          JOINT LeftShoulder
          {
            OFFSET 13.5163 -1.1332 -5.0146
            CHANNELS 3 Zrotation Xrotation Yrotation
            JOINT LeftElbow
            {
              OFFSET -0.0995 -28.05 -0.2431
              CHANNELS 3 Zrotation Xrotation Yrotation
              JOINT LeftWrist
              {
                OFFSET 0.0679 -23.3996 -0.1402
                CHANNELS 3 Zrotation Xrotation Yrotation
                JOINT LeftFinger1
                {
                  OFFSET 0.7932 -9.069 2.5189
                  CHANNELS 3 Zrotation Xrotation Yrotation
                  JOINT LeftFinger11
                  {
                    OFFSET -0.8272 -3.3923 0.5977
                    CHANNELS 3 Zrotation Xrotation Yrotation
                    JOINT LeftFinger12
                    {
                      OFFSET -0.5649 -2.3158 0.4082
                      CHANNELS 3 Zrotation Xrotation Yrotation
                      End Site
                      {
                        OFFSET -0.4919 -1.6479 0.2673
                      }
                    }
                  }
                }
                JOINT LeftFinger2
                {
                  OFFSET 0.9159 -9.2044 0.2193
                  CHANNELS 3 Zrotation Xrotation Yrotation
                  JOINT LeftFinger21
                  {
                    OFFSET 0.0117 -4.1944 -0.0248
                    CHANNELS 3 Zrotation Xrotation Yrotation
                    JOINT LeftFinger22
                    {
                      OFFSET 0.0071 -2.3249 -0.0142
                      CHANNELS 3 Zrotation Xrotation Yrotation
                      End Site
                      {
                        OFFSET -0.1475 -2.0882 0.0028
                      }
                    }
                  }
                }
                JOINT LeftFinger3
                {
                  OFFSET 0.6113 -8.7231 -2.0637
                  CHANNELS 3 Zrotation Xrotation Yrotation
                  JOINT LeftFinger31
                  {
                    OFFSET -0.1927 -3.8059 -0.2383
                    CHANNELS 3 Zrotation Xrotation Yrotation
                    JOINT LeftFinger32
                    {
                      OFFSET -0.1091 -2.1688 -0.1362
                      CHANNELS 3 Zrotation Xrotation Yrotation
                      End Site
                      {
                        OFFSET -0.2358 -1.9176 -0.0906
                      }
                    }
                  }
                }
                JOINT LeftFinger4
                {
                  OFFSET -0.6151 -8.0947 -3.5641
                  CHANNELS 3 Zrotation Xrotation Yrotation
                  JOINT LeftFinger41
                  {
                    OFFSET -0.4882 -2.341 -0.6462
                    CHANNELS 3 Zrotation Xrotation Yrotation
                    JOINT LeftFinger42
                    {
                      OFFSET -0.3575 -1.7167 -0.4742
                      CHANNELS 3 Zrotation Xrotation Yrotation
                      End Site
                      {
                        OFFSET -0.4187 -1.5237 -0.3496
                      }
                    }
                  }
                }
                JOINT LeftFinger0
                {
                  OFFSET -1.42 -1.8761 1.4223
                  CHANNELS 3 Zrotation Xrotation Yrotation
                  JOINT LeftFinger01
                  {
                    OFFSET -1.1471 -3.4929 2.6334
                    CHANNELS 3 Zrotation Xrotation Yrotation
                    JOINT LeftFinger02
                    {
                      OFFSET -0.823 -2.3 1.6571
                      CHANNELS 3 Zrotation Xrotation Yrotation
                      End Site
                      {
                        OFFSET -0.5822 -1.6914 1.1582
                      }
                    }
                  }
                }
              }
            }
          }
        }
        JOINT RightCollar
        {
          OFFSET -2.2603 21.606 7.4023
          CHANNELS 3 Zrotation Xrotation Yrotation
          JOINT RightShoulder
          {
            OFFSET -13.5187 -1.1334 -5.0155
            CHANNELS 3 Zrotation Xrotation Yrotation
            JOINT RightElbow
            {
              OFFSET 0.0994 -28.0499 -0.2431
              CHANNELS 3 Zrotation Xrotation Yrotation
              JOINT RightWrist
              {
                OFFSET -0.0679 -23.3996 -0.1402
                CHANNELS 3 Zrotation Xrotation Yrotation
                JOINT RightFinger1
                {
                  OFFSET -0.7932 -9.0691 2.5189
                  CHANNELS 3 Zrotation Xrotation Yrotation
                  JOINT RightFinger11
                  {
                    OFFSET 0.8272 -3.3923 0.5977
                    CHANNELS 3 Zrotation Xrotation Yrotation
                    JOINT RightFinger12
                    {
                      OFFSET 0.565 -2.3158 0.4082
                      CHANNELS 3 Zrotation Xrotation Yrotation
                      End Site
                      {
                        OFFSET 0.4919 -1.6479 0.2673
                      }
                    }
                  }
                }
                JOINT RightFinger2
                {
                  OFFSET -0.916 -9.2044 0.2193
                  CHANNELS 3 Zrotation Xrotation Yrotation
                  JOINT RightFinger21
                  {
                    OFFSET -0.0117 -4.1944 -0.0248
                    CHANNELS 3 Zrotation Xrotation Yrotation
                    JOINT RightFinger22
                    {
                      OFFSET -0.0071 -2.3249 -0.0142
                      CHANNELS 3 Zrotation Xrotation Yrotation
                      End Site
                      {
                        OFFSET 0.1475 -2.0882 0.0028
                      }
                    }
                  }
                }
                JOINT RightFinger3
                {
                  OFFSET -0.6113 -8.7231 -2.0637
                  CHANNELS 3 Zrotation Xrotation Yrotation
                  JOINT RightFinger31
                  {
                    OFFSET 0.1927 -3.8059 -0.2383
                    CHANNELS 3 Zrotation Xrotation Yrotation
                    JOINT RightFinger32
                    {
                      OFFSET 0.1091 -2.1688 -0.1362
                      CHANNELS 3 Zrotation Xrotation Yrotation
                      End Site
                      {
                        OFFSET 0.2358 -1.9176 -0.0906
                      }
                    }
                  }
                }
                JOINT RightFinger4
                {
                  OFFSET 0.6151 -8.0947 -3.564
                  CHANNELS 3 Zrotation Xrotation Yrotation
                  JOINT RightFinger41
                  {
                    OFFSET 0.4882 -2.341 -0.6462
                    CHANNELS 3 Zrotation Xrotation Yrotation
                    JOINT RightFinger42
                    {
                      OFFSET 0.3574 -1.7166 -0.4742
                      CHANNELS 3 Zrotation Xrotation Yrotation
                      End Site
                      {
                        OFFSET 0.4187 -1.5237 -0.3496
                      }
                    }
                  }
                }
                JOINT RightFinger0
                {
                  OFFSET 1.4199 -1.8761 1.4221
                  CHANNELS 3 Zrotation Xrotation Yrotation
                  JOINT RightFinger01
                  {
                    OFFSET 1.1472 -3.4929 2.6336
                    CHANNELS 3 Zrotation Xrotation Yrotation
                    JOINT RightFinger02
                    {
                      OFFSET 0.8229 -2.3 1.6571
                      CHANNELS 3 Zrotation Xrotation Yrotation
                      End Site
                      {
                        OFFSET 0.5822 -1.6914 1.1582
                      }
                    }
                  }
                }
              }
            }
          }
        }
      }
    }
  }
  JOINT RightHip
  {
    OFFSET -9.412 3.9771 -0.7758
    CHANNELS 3 Zrotation Xrotation Yrotation
    JOINT RightKnee
    {
      OFFSET -0.7531 -40.938 0
      CHANNELS 3 Zrotation Xrotation Yrotation
      JOINT RightAnkle
      {
        OFFSET 0 -40.1986 0
        CHANNELS 3 Zrotation Xrotation Yrotation
        JOINT RightToe
        {
          OFFSET 0 -4.4182 9.239
          CHANNELS 3 Zrotation Xrotation Yrotation
          End Site
          {
            OFFSET 0 0 6.1981
          }
        }
      }
    }
  }
  JOINT LeftHip
  {
    OFFSET 9.4119 3.9773 -0.7758
    CHANNELS 3 Zrotation Xrotation Yrotation
    JOINT LeftKnee
    {
      OFFSET 0.7532 -40.9383 0
      CHANNELS 3 Zrotation Xrotation Yrotation
      JOINT LeftAnkle
      {
        OFFSET 0 -40.1986 0
        CHANNELS 3 Zrotation Xrotation Yrotation
        JOINT LeftToe
        {
          OFFSET 0 -4.4182 9.239
          CHANNELS 3 Zrotation Xrotation Yrotation
          End Site
          {
            OFFSET 0 0 6.1981
          }
        }
      }
    }
  }
}
MOTION
Frames:	4
Frame Time:	0.0333333
0.0827747 64.1096 -65.9653 7.33985e-007 39.9976 -3.92346e-007 -0.704318 12.9664 -0.0449397 -1.45632 25.9324 0.0820925 -1.45632 25.9324 0.0820913 4.29317e-005 -45.2275 9.33766e-006 -1.00437e-007 -10.8154 1.23922e-007 -45.3427 -6.48235 37.5451 58.8316 38.0937 -23.1007 2.23622 -3.78761 0.535417 -3.10165 13.8915 -0.0859048 -1.16786e-015 3.97569e-016 -0 -1.14301e-015 0 -3.97569e-016 -1.06847e-015 0 -0 -1.16786e-015 3.97569e-016 -0 -0.0127862 0.00231953 8.34814e-005 -2.23633e-016 -7.95139e-016 7.95139e-016 -1.16786e-015 3.97569e-016 -0 -0.016028 0.00299207 0.000855681 -1.2424e-015 0 -1.19271e-015 -1.16786e-015 3.97569e-016 -0 -0.0126111 0.00312913 0.00283157 1.21756e-015 7.95139e-016 -1.19271e-015 -1.16786e-015 3.97569e-016 -0 -1.14301e-015 0 -3.97569e-016 -1.06847e-015 0 -0 44.0358 -5.60035 -41.1536 -62.5998 33.248 27.404 2.49598 -11.3369 0.311211 9.52486 -11.6044 0.979346 1.39149e-015 0 -1.98785e-016 -4.77083e-015 6.36111e-015 -1.78906e-015 -5.56597e-015 0 -1.19271e-015 1.39149e-015 0 -1.98785e-016 0.0128846 0.00229664 -8.51122e-005 -3.97569e-015 -3.18055e-015 1.39149e-015 1.39149e-015 0 -1.98785e-016 0.0163236 0.00302572 -0.000873809 1.98785e-016 3.18055e-015 4.96962e-015 1.39149e-015 0 -1.98785e-016 0.0144496 0.00364324 -0.0032331 1.42801e-006 3.98979e-006 -1.37318e-006 1.39149e-015 0 -1.98785e-016 -4.77083e-015 6.36111e-015 -1.78906e-015 -5.56597e-015 0 -1.19271e-015 -9.97301 -41.6561 -6.04727 -0.0547875 11.9292 0.220996 -4.24531 -7.99568 0.829857 -1.00635e-015 0 -3.97569e-016 15.638 -37.4001 -0.37263 -3.46126 9.50504 0.631023 7.0147 -4.76406 9.32407 1.02864e-008 8.50513e-007 -1.06179e-007 
0.0849375 64.1097 -65.9658 0 39.9976 -0 -0.704877 12.9378 -0.0438617 -1.4575 25.8752 0.0840296 -1.4575 25.8752 0.0840288 4.30926e-005 -44.9522 1.04277e-005 -4.15694e-007 -10.3057 5.01585e-007 -45.3774 -6.42627 37.6855 58.8492 38.0886 -23.1109 2.23624 -3.78766 0.535393 -3.10165 13.8915 -0.0858956 -8.76991e-007 -1.53479e-006 -1.01297e-006 8.16458e-007 -1.82096e-006 -4.92357e-007 -8.1433e-008 -2.35416e-006 -1.70289e-006 -8.76991e-007 -1.53479e-006 -1.01297e-006 -0.0128019 0.00231763 8.43336e-005 -7.11747e-008 -1.49906e-006 -1.49003e-006 -8.76991e-007 -1.53479e-006 -1.01297e-006 -0.0160809 0.00300054 0.000858931 -1.11811e-007 -1.5008e-006 -2.34148e-006 -8.76991e-007 -1.53479e-006 -1.01297e-006 -0.0126843 0.00314565 0.00284818 -8.13181e-008 -1.49949e-006 -1.7029e-006 -8.76991e-007 -1.53479e-006 -1.01297e-006 8.16458e-007 -1.82096e-006 -4.92357e-007 -8.1433e-008 -2.35416e-006 -1.70289e-006 44.0721 -5.53937 -41.281 -62.5997 33.248 27.4039 2.49597 -11.3368 0.311194 9.52487 -11.6044 0.979345 -3.57812e-015 -3.18055e-015 9.93923e-016 2.78299e-015 3.18055e-015 -1.78906e-015 -1.19271e-015 -6.36111e-015 -1.78906e-015 -3.57812e-015 -3.18055e-015 9.93923e-016 0.0129415 0.00231839 -9.18079e-005 -1.19271e-015 -6.36111e-015 2.98177e-015 -3.57812e-015 -3.18055e-015 9.93923e-016 0.0164016 0.00304577 -0.000877965 -5.76476e-015 -3.18055e-015 5.96354e-016 -3.57812e-015 -3.18055e-015 9.93923e-016 0.0147659 0.00372773 -0.00330519 2.98177e-015 9.54166e-015 1.98785e-016 -3.57812e-015 -3.18055e-015 9.93923e-016 2.78299e-015 3.18055e-015 -1.78906e-015 -1.19271e-015 -6.36111e-015 -1.78906e-015 -9.88928 -41.6581 -5.73644 -0.0549257 11.9271 0.220866 -4.22397 -7.97209 0.564253 -4.05024e-015 -7.95139e-016 -3.97569e-016 15.6438 -37.4292 -0.365212 -3.32852 9.63271 0.606147 7.01094 -4.79766 9.32732 -5.2181e-016 -4.25242e-007 -1.98785e-016 
0.0870995 64.1099 -65.9662 0 39.9976 -0 -0.70543 12.9092 -0.042783 -1.45867 25.818 0.0859654 -1.45866 25.8179 0.0859641 4.21556e-005 -44.677 9.03063e-006 7.83721e-007 -9.79605 5.49083e-007 -45.4122 -6.37027 37.8259 58.8668 38.0833 -23.1212 2.23625 -3.78758 0.535384 -3.10167 13.8915 -0.0858869 2.6339e-015 0 1.19271e-015 2.5842e-015 0 7.95139e-016 2.5842e-015 0 3.97569e-016 2.6339e-015 0 1.19271e-015 -0.0128797 0.00233981 8.72797e-005 -1.26725e-015 -1.19271e-015 -3.97569e-016 2.6339e-015 0 1.19271e-015 -0.0159808 0.00298355 0.000853912 3.97569e-016 -3.97569e-016 -7.95139e-016 2.6339e-015 0 1.19271e-015 -0.0126098 0.00313246 0.00283337 -2.85753e-015 0 7.95139e-016 2.6339e-015 0 1.19271e-015 2.5842e-015 0 7.95139e-016 2.5842e-015 0 3.97569e-016 44.1086 -5.47852 -41.4084 -62.5997 33.2479 27.404 2.49597 -11.3368 0.311181 9.52491 -11.6044 0.979348 3.03661e-006 -3.83179e-006 2.47302e-006 2.38542e-015 3.18055e-015 9.93923e-016 1.19271e-015 9.54166e-015 -1.39149e-015 3.03661e-006 -3.83179e-006 2.47302e-006 0.01294 0.00232169 -8.13514e-005 1.98785e-015 6.36111e-015 -2.5842e-015 3.03661e-006 -3.83179e-006 2.47302e-006 0.0162883 0.00302836 -0.000872802 6.95746e-015 3.18055e-015 -3.97569e-016 3.03661e-006 -3.83179e-006 2.47302e-006 0.0146839 0.00370313 -0.00329205 -2.78299e-015 -1.59028e-014 -3.57812e-015 3.03661e-006 -3.83179e-006 2.47302e-006 2.38542e-015 3.18055e-015 9.93923e-016 1.19271e-015 9.54166e-015 -1.39149e-015 -9.80597 -41.6587 -5.42592 -0.05468 11.9242 0.220768 -4.20252 -7.9487 0.298651 2.28457e-007 -4.46833e-007 -5.00478e-007 15.6493 -37.4584 -0.358035 -3.19548 9.76027 0.580962 7.0072 -4.83098 9.33061 -1.64544e-006 -1.41189e-009 3.76297e-008 
0.0892601 64.11 -65.9667 4.11901e-007 39.9976 -2.64754e-007 -0.705975 12.8806 -0.0417041 -1.45982 25.7608 0.0878988 -1.45981 25.7607 0.0878974 3.99526e-005 -44.4018 7.60808e-006 -1.01386e-006 -9.28648 -4.30601e-007 -45.4472 -6.31438 37.9664 58.8845 38.0781 -23.1315 2.23628 -3.7877 0.5354 -3.10166 13.8915 -0.085909 4.91368e-006 -1.059e-006 -1.15967e-006 -1.5806e-006 1.43045e-007 1.59271e-006 1.66148e-006 -7.79334e-007 1.10095e-007 4.91368e-006 -1.059e-006 -1.15967e-006 -0.0127969 0.00231982 8.68239e-005 1.63108e-006 -1.47816e-006 -5.28391e-007 4.91368e-006 -1.059e-006 -1.15967e-006 -0.0160381 0.00299483 0.000855742 3.02893e-008 -1.91974e-006 6.38555e-007 4.91368e-006 -1.059e-006 -1.15967e-006 -0.0126619 0.0031424 0.00284356 6.63543e-006 -2.74503e-006 2.27979e-007 4.91368e-006 -1.059e-006 -1.15967e-006 -1.5806e-006 1.43045e-007 1.59271e-006 1.66148e-006 -7.79334e-007 1.10095e-007 44.1452 -5.41773 -41.5359 -62.5997 33.248 27.4039 2.496 -11.3368 0.311183 9.52487 -11.6044 0.979342 -2.79228e-006 8.82394e-007 -1.04265e-006 1.13312e-006 -4.52295e-006 1.09772e-006 7.95139e-016 1.27222e-014 -9.93923e-016 -2.79228e-006 8.82394e-007 -1.04265e-006 0.0128674 0.00231027 -9.01278e-005 -3.77691e-015 0 -1.19271e-015 -2.79228e-006 8.82394e-007 -1.04265e-006 0.0163683 0.00304125 -0.000879813 -3.41422e-006 4.17245e-006 3.28023e-006 -2.79228e-006 8.82394e-007 -1.04265e-006 0.0146125 0.00368449 -0.00326799 1.04458e-006 1.76621e-007 1.3492e-006 -2.79228e-006 8.82394e-007 -1.04265e-006 1.13312e-006 -4.52295e-006 1.09772e-006 7.95139e-016 1.27222e-014 -9.93923e-016 -9.72216 -41.6603 -5.11505 -0.0549291 11.9227 0.220656 -4.18095 -7.92554 0.0330533 1.86361e-015 1.19271e-015 7.95139e-016 15.6551 -37.4869 -0.350706 -3.06259 9.88694 0.555372 7.00345 -4.86422 9.33401 -1.04888e-008 -8.30125e-012 1.06153e-007 
